<?xml version="1.0" encoding="UTF-8" standalone="no"?>
<!-- Created with Inkscape (http://www.inkscape.org/) -->

<svg version="1.1" id="svg2" width="863.099" height="1125.28" viewBox="0 0 863.099 1125.28" sodipodi:docname="vecteezy_modern-and-professional-pp-letter-initial-logo-design_10517608.svg" inkscape:version="1.3.2 (091e20ef0f, 2023-11-25)" xmlns:inkscape="http://www.inkscape.org/namespaces/inkscape" xmlns:sodipodi="http://sodipodi.sourceforge.net/DTD/sodipodi-0.dtd" xmlns="http://www.w3.org/2000/svg" xmlns:svg="http://www.w3.org/2000/svg">
  <defs id="defs6" />
  <sodipodi:namedview id="namedview4" pagecolor="#ffffff" bordercolor="#000000" borderopacity="0.25" inkscape:showpageshadow="2" inkscape:pageopacity="0.0" inkscape:pagecheckerboard="0" inkscape:deskcolor="#d1d1d1" showgrid="false" inkscape:zoom="0.2539271" inkscape:cx="1581.1625" inkscape:cy="1002.2562" inkscape:window-width="2560" inkscape:window-height="1371" inkscape:window-x="0" inkscape:window-y="32" inkscape:window-maximized="1" inkscape:current-layer="g10" />
  <g id="g8" inkscape:groupmode="layer" inkscape:label="ink_ext_XXXXXX" transform="matrix(1.3333333,0,0,-1.3333333,-1000.0063,2091.2349)">
    <g id="g10" transform="scale(0.1)">
      <path d="m 9781.6876,8874.7619 v -1630.1 h -2281.64 v 5975.1001 h 197.07 1666.4 v 2267.4 197.1 h 196.13 2602.0404 c 498.3,0 951.4,-203.9 1279.6,-532 328.2,-328.3 532,-781.2 532,-1279.7 0,-428.8 -151.3,-824.1 -402.9,-1135.4 -256.7,-317.4 -618,-547.3 -1030.1,-635.8 l -81.6,384.7 c 322.1,69.2 604.7,249 805.5,497.3 196.8,243.6 315.2,553.2 315.2,889.2 0,389.6 -159.7,744.1 -416.6,1001.1 -257,257 -611.5,416.7 -1001.1,416.7 H 9755.7876 l 0.1,-2070.6 h 543.1004 c 315.1,0 612.3,-81.7 871.4,-225.1 268.8,-148.5 496.3,-363.2 659.7,-621.2 89.5,-141.2 160.3,-296.9 208.7,-463.3 46.8,-161.2 72,-329.7 72,-502.1 0,-498.4 -203.9,-951.4 -532.1,-1279.5 -328.3,-328.3001 -781.3,-532.2001 -1279.7,-532.2001 h -739.2604 -196.09 l -0.12,197 v 3032.4001 h -1469.52 V 7638.5619 h 1493.82 v 1236.2 z m 517.3004,3951.0001 H 9755.8876 V 9990.2619 h 543.1004 c 389.7,0 744.1,159.6001 1001.2,416.7001 257,257 416.6,611.4 416.6,1001.1 0,137.9 -19.2,269.6 -55,392.9 -37.1,127.6 -92.8,249.3 -164.1,361.8 -128.5,202.8 -306.6,371.2 -516.6,487.2 -202.4,111.9 -435,175.8 -682.1,175.8" style="fill:#284299;fill-opacity:1;fill-rule:nonzero;stroke:none" id="path16" />
    </g>
  </g>
</svg>