<?xml version="1.0" encoding="UTF-8" standalone="no"?>
<!-- Created with Inkscape (http://www.inkscape.org/) -->

<svg
   version="1.1"
   id="svg2"
   width="863.09302"
   height="1125.28"
   viewBox="0 0 863.09301 1125.28"
   sodipodi:docname="vecteezy_modern-and-professional-pp-letter-initial-logo-design_10517608.svg"
   inkscape:version="1.3.2 (091e20ef0f, 2023-11-25)"
   xmlns:inkscape="http://www.inkscape.org/namespaces/inkscape"
   xmlns:sodipodi="http://sodipodi.sourceforge.net/DTD/sodipodi-0.dtd"
   xmlns="http://www.w3.org/2000/svg"
   xmlns:svg="http://www.w3.org/2000/svg">
  <defs
     id="defs6" />
  <sodipodi:namedview
     id="namedview4"
     pagecolor="#ffffff"
     bordercolor="#000000"
     borderopacity="0.25"
     inkscape:showpageshadow="2"
     inkscape:pageopacity="0.0"
     inkscape:pagecheckerboard="0"
     inkscape:deskcolor="#d1d1d1"
     showgrid="false"
     inkscape:zoom="0.2539271"
     inkscape:cx="96.484386"
     inkscape:cy="37.412313"
     inkscape:window-width="2560"
     inkscape:window-height="1371"
     inkscape:window-x="0"
     inkscape:window-y="32"
     inkscape:window-maximized="1"
     inkscape:current-layer="g8" />
  <g
     id="g8"
     inkscape:groupmode="layer"
     inkscape:label="ink_ext_XXXXXX"
     transform="matrix(1.3333333,0,0,-1.3333333,-1489.251,1827.1482)">
    <g
       id="g10"
       transform="scale(0.1)">
      <path
         d="m 13451.083,6894.1117 v -1630.1 h -2281.7 v 5975.1003 h 196.9 1666.6 l -0.1,2267.4 v 197.1 h 196.2 2602 c 498.3,0 951.4,-203.9 1279.6,-532 328.2,-328.3 532,-781.2 532,-1279.7 0,-428.8 -151.4,-824.1 -403,-1135.4 -256.6,-317.4 -617.9,-547.3 -1030.1,-635.8 l -81.5,384.7 c 322.2,69.2 604.7,249 805.4,497.3 196.9,243.6 315.3,553.2 315.3,889.2 0,389.6 -159.7,744.1 -416.6,1001.1 -257,257 -611.5,416.7 -1001.1,416.7 h -2405.9 l 0.1,-2070.6 h 543.2 c 315,0 612.2,-81.7 871.3,-225.1 268.7,-148.5 496.3,-363.2 659.7,-621.2 89.5,-141.2 160.3,-296.9 208.7,-463.3003 46.8,-161.2 71.9,-329.7 71.9,-502.1 0,-498.4 -203.8,-951.4 -532,-1279.5 -328.3,-328.3 -781.3,-532.2 -1279.6,-532.2 h -739.4 -196.1 v 197 3032.4003 h -1469.6 V 5657.9117 h 1493.8 v 1236.2 z m 517.3,3951.0003 h -543.2 V 8009.6117 h 543.2 c 389.6,0 744,159.6 1001.1,416.7 257,257 416.6,611.4 416.6,1001.1 0,137.9 -19.3,269.6 -55,392.9 -37.1,127.6 -92.9,249.3003 -164.1,361.8003 -128.5,202.8 -306.6,371.2 -516.6,487.2 -202.5,111.9 -435.1,175.8 -682,175.8"
         style="fill:#ffffff;fill-opacity:1;fill-rule:nonzero;stroke:none"
         id="path18" />
    </g>
  </g>
</svg>
